# Blender 4.0.2
# www.blender.org
mtllib cofre.mtl
o Car_Cube.024
v -0.970275 0.003130 1.130850
v 0.969367 0.003130 1.130850
v 0.484415 0.053130 1.180850
v 0.483838 0.103130 -0.106651
v -0.000537 0.053130 1.195850
v -0.000537 0.118130 -0.106651
v -0.485406 0.053130 1.180850
v -0.484912 0.103130 -0.106651
v -0.969287 0.053130 -0.156651
v 0.968213 0.053130 -0.156651
vn 0.2288 0.8641 0.4483
vn 0.3896 0.6057 0.6938
vn 0.4398 0.8093 -0.3895
vn 0.0627 0.9972 0.0414
vn -0.0000 0.9990 0.0444
vn -0.0627 0.9972 0.0414
vn -0.2288 0.8641 0.4483
vn -0.4394 0.8095 -0.3893
vn -0.3890 0.6058 0.6940
vt 0.583364 0.168530
vt 0.641993 0.179250
vt 0.623248 0.428112
vt 0.579412 0.421109
vt 0.489970 0.160408
vt 0.495366 0.419050
vt 0.399751 0.419162
vt 0.410493 0.162249
vt 0.312790 0.431036
vt 0.353484 0.171645
s 1
usemtl Material.001
f 3/1/1 2/2/2 10/3/3 4/4/4
f 5/5/5 3/1/1 4/4/4 6/6/5
f 8/7/6 7/8/7 5/5/5 6/6/5
f 9/9/8 1/10/9 7/8/7 8/7/6
